<?xml version="1.0" encoding="utf-8"?>
<!-- Generator: Adobe Illustrator 17.1.0, SVG Export Plug-In . SVG Version: 6.00 Build 0)  -->
<!DOCTYPE svg PUBLIC "-//W3C//DTD SVG 1.1//EN" "http://www.w3.org/Graphics/SVG/1.1/DTD/svg11.dtd">
<svg version="1.1" id="Layer_1" xmlns="http://www.w3.org/2000/svg" xmlns:xlink="http://www.w3.org/1999/xlink" x="0px" y="0px"
	 viewBox="0 0 416.8 226.2" enable-background="new 0 0 416.8 226.2" xml:space="preserve">
<g>
	<path fill="#B07792" d="M34.9,50.5c0.7-3.6,1.3-7.6,1.8-12.1C40.1,7,45.8,1.3,53.7,1.3c6,0,9,5.8,9,13.6c0,12.5-7.8,30.2-24,36.7
		c-1.7,8.2-4,13.9-6.7,18.1c8.1,2.9,14.1,7.1,22.2,7.1c5.7,0,7.6-3.9,8.1-6.4c1.2,0.3,2.4,0.6,3.6,0.9c-1,4.6-4.7,8.4-11.6,8.4
		c-8.8,0-15.9-4.6-23.8-7.8c-4.6,6-10.2,7.8-15.7,7.8c-4.3,0-7.6-2.1-7.6-6c0-3.4,3.2-6.9,9.8-6.9c4.5,0,8.3,0.6,11.8,1.7
		c2.2-3.6,4.1-8.7,5.6-15.6c-2.9,0.8-6.1,1.3-9.5,1.3C7.4,54.2,0,44.2,0,34.6c0-9.1,6.6-18,17.5-18c2.9,0,5,0.6,7.3,1.8
		c-0.6,1.2-1.2,2.3-1.8,3.4c-1.6-1.1-3.4-1.4-5.5-1.4C8.6,20.4,3.4,27.5,3.4,35c0,8.2,6.4,17.1,21.6,17.1
		C28.6,52.1,31.9,51.5,34.9,50.5z M27.7,70.7c-3.2-1.1-6.7-1.8-10.3-1.8c-4.6,0-6.9,2.7-6.9,5c0,2,1.7,3.8,5,3.8
		C19.9,77.7,24,75.9,27.7,70.7z M40.7,38.4c-0.4,3.7-0.9,7-1.5,10.1c13.7-7,19.8-23.6,19.8-34.6c0-6.2-1.9-10.6-5.5-10.6
		C48.8,3.4,43.9,8.3,40.7,38.4z"/>
	<path fill="#B07792" d="M78.2,47.2c-1.8,4.6-4.3,7.6-7.7,8.5c-2.2,4.6-5.8,8.1-9.5,8.1c-8.1,0-8.5-11.6-5-23.6l2.2,0.6
		c1-5.2,4.1-9.7,9-9.7c7.4,0,7.9,13,4.1,22.6c2.3-1.1,4.1-3.1,5.7-7.2C77.3,46.5,78.3,46.8,78.2,47.2z M66.6,56.1
		c-6-0.5-8.5-5.7-8.6-11.3c-1.1,5.9-2.5,17,3.1,17C63.3,61.8,65.3,59.4,66.6,56.1z M67.3,54.2C71,45,71.5,32.9,67,32.9
		C59.2,32.9,56.3,54.2,67.3,54.2z"/>
	<path fill="#B07792" d="M79.8,44.6l-0.9,2.6c0,0-1.3-0.2-1.3-0.7c0.7-2.2,1.5-4.6,2-7.1c0-2.7,0.1-5.5,0.2-8h2.9
		c0.1,2.4-0.1,4.5-0.9,7.1c0.3,5.5,0.7,13,1.3,21c1.8-2.5,3.4-5.5,4.7-8.6c-1.1-2.4-1.5-5.9-1.5-9.3c0-7.1,2.5-14.9,6.4-14.9
		c2.3,0,3.5,2.2,3.5,6.2c0,5.9-2.7,13-5.6,19.2c0.6,0.8,1.5,1.3,2.5,1.3c2.7,0,4.6-2.6,6.1-6.8c0.4,0,1.3,0.4,1.3,0.7
		c-1.7,5.3-4.6,7.5-7.6,7.5c-1.1,0-2.2-0.4-3-1.3c-2.2,4.6-4.6,8.3-6.5,10h-2.4C80.6,58.4,80,51.6,79.8,44.6z M92.1,28.6
		c-2.2,0-4,5.9-4.1,11.8c-0.1,5,0.3,6.9,0.7,8.3c2.7-6.9,4.3-14,4.3-18C93.1,29.1,92.8,28.6,92.1,28.6z"/>
	<path fill="#B07792" d="M140.7,28.3c10.2,0,15.1,6.8,15.1,13.9c0,8.2-6.3,17-18.2,17c-6.4,0-10.6-2.8-13.5-6.3l2.2-2.1
		c2.9,3.9,6.5,6,11.4,6c9.8,0,14.8-7.4,14.8-14.4c0-6.2-3.9-12-11.7-12c-18.8,0-19.5,33.5-34,33.5c-5.3,0-7.5-5.2-7.5-11.4
		c0-9.5,5-21.5,11.6-21.5c2.7,0,4.1,1.8,4.1,4.3c0,3.6-3,8.8-9,11.8c-0.9,0.5-1.8,0.8-2.9,1.1c-0.3,1.8-0.4,3.4-0.4,5
		c0,4.8,1.3,8.6,4.8,8.6C116.7,61.8,119.7,28.3,140.7,28.3z M103.3,46.3c6-3.3,8.5-8.3,8.5-10.9c0-1.1-0.5-1.9-1.3-1.9
		C107.5,33.5,104.6,39.7,103.3,46.3z"/>
	<path fill="#B07792" d="M171.9,13.7c-1.5,3.2-1.9,6.4-1.6,9.9c-1.1,0.2-2.2,0.4-3.4,0.5v-1.4c0.2-3.5,1.3-7,3-10L171.9,13.7z"/>
	<path fill="#B07792" d="M226,62c1.5,6.3,1.8,12,1.1,16.6l-3.6-0.1c0-3.8,0.1-7.6,0.3-11.3c-1.9-8.3-6-17.1-9.7-25.6
		c-3.6,18.6-12.6,37.7-27.6,37.7c-10.9,0-18.7-8.3-18.7-19.3c0-10.6,7.6-22.2,19.5-22.2c7.3,0,12.5,5,12.5,12.7
		c0,2.9-1.5,7.6-3.6,10.1l-3.2-2.3c2.2-2.7,3.7-6.8,3.7-9.4c0-4.7-2.9-9-8.9-9c-10.7,0-16.4,9.6-16.4,19.8c0,10,5.4,17.6,15.6,17.6
		c14,0,22-21.4,25-40.3c-3.4-7.9-6.1-15.6-6.1-22.4c0-4.1,1.1-7.3,3.9-7.3c5.1,0,6.9,12.3,5.3,26.7c2.9,7,6.3,14.8,9,22.1l0.5,1.4
		c3.4-30.3,14.4-56.9,30-56.9c4.5,0,7.5,1.5,9.7,4.4l-2.8,2.8c-1.5-2.5-4.6-3.8-7.9-3.8C239.6,4.1,229.6,29.3,226,62z M213.2,28.8
		C214.1,17.7,213,9,210.2,9c-1.4,0-1.7,1.7-1.7,4.1C208.6,16.7,210.5,22.3,213.2,28.8z"/>
	<path fill="#B07792" d="M248.8,23.7c0.1-1,0.2-1.9,0.2-2.8c0-2.5-0.6-4.7-1.7-7.2l3.1-1.4c0.7,2.2,1,4.5,1,6.8c0,1.8-0.1,3.4-0.5,5
		L248.8,23.7z"/>
	<path fill="#B07792" d="M307.2,45.4c-0.6,0-1.3,0-1.9-0.1l0.6-3.5c0.6,0.1,1.3,0.2,1.9,0.4c1.9-9.9,3.4-20.9,6.2-31.4
		c-7.8,4.3-20,3.6-20,12.5c0,3.9,3.1,5.7,7.4,5.7l-0.5,3.8c-6.7-0.2-10.5-3.9-10.5-9c0-11.5,16.6-11.3,24.4-15.9
		c0.6-2.2,1.3-4.3,2.1-6.4l4.1,0.8c-0.4,2.7-1.6,4.6-3.3,6.2c-3.1,11.6-4.1,23-6.2,34.2C326.9,37.1,326.8,0,342.5,0
		c3.5,0,6.2,2.5,5.9,6.2h-3.2V5.9c0-2-1.1-3.6-3.1-3.6c-11.1,0-10.9,36.8-30.1,42.4c11.2,8.9,11.5,39.1,24.6,39.1
		c4.8,0,6.9-3.2,7.7-6.9c1.2,0.3,2.3,0.7,3.5,1c-1.4,4.8-4.4,8.3-10.6,8.3c-18.8,0-18.4-30.8-26.4-40.2c-3.6,18.1-9.4,34-28.4,34
		c-13.7,0-19.5-9.7-19.5-19.6c0-10.8,6.9-22.3,19.7-22.3c8.1,0,12.6,6.3,12.6,13.4c0,3.3-1,6.8-3.2,9.9l-3.3-2c2-2.9,2.9-6,2.9-8.8
		c0-5.6-3.8-10.2-9.3-10.2c-9.8,0-15.8,10.4-15.8,20.2c0,8.8,4.9,17.2,16.3,17.2C297.6,77.6,303.5,62.9,307.2,45.4z"/>
	<path fill="#B07792" d="M339.4,31.4c-2.2,10.7-4.4,20.7-4.4,26.4c0,2.1,0.6,2.9,1.3,2.9c2.2,0,4.8-5.1,8.2-14.2
		c0.4,0,1.3,0.4,1.3,0.7c-3.6,9.7-6.1,16.5-10.6,16.5c-2.5,0-3.6-3-3.6-7.3c0-7.1,2.7-17.9,4.1-25H339.4z M336.6,24.1
		c0-1.5,1-3.4,2.9-3.4c1.5,0,2.1,1.1,2.1,2.4c0,1.6-1.1,3.3-2.9,3.3C337.3,26.3,336.6,25.3,336.6,24.1z"/>
	<path fill="#B07792" d="M347.6,57.4c0,2,1.2,3.6,3.2,3.6c2.6,0,4.4-2.9,4.4-6.3c0-5-2.7-10.4-4-17.5c-1.1,3.6-2.5,7.3-3.5,10
		c0,0-1.3-0.2-1.3-0.7c1.1-3.2,2.9-7.7,4.3-12c-0.3-1.5-0.4-3.2-0.4-6c0-2.5,0.7-4.9,1.3-6.9l2.9,0.6c-0.4,4-0.8,7.1-1.8,10.1
		c0.4,7.1,6.2,15.3,6.2,22.1c0,0.6-0.1,1.1-0.2,1.6c1.5-2.5,2.9-5.6,4.3-9.5c0.3,0,1.3,0.5,1.3,0.7c-2.4,5.6-6,16.7-13.9,16.7
		c-3.1,0-6.4-1.9-6.1-6.3L347.6,57.4z"/>
	<path fill="#B07792" d="M364.9,57.4c0,2,1.2,3.6,3.2,3.6c2.6,0,4.4-2.9,4.4-6.3c0-5-2.7-10.4-4-17.5c-1.1,3.6-2.5,7.3-3.5,10
		c0,0-1.3-0.2-1.3-0.7c1.1-3.2,2.9-7.7,4.3-12c-0.3-1.5-0.4-3.2-0.4-6c0-2.5,0.7-4.9,1.3-6.9l2.9,0.6c-0.4,4-0.8,7.1-1.8,10.1
		c0.4,7.1,6.2,15.3,6.2,22.1c0,0.6-0.1,1.1-0.2,1.6c1.5-2.5,2.9-5.6,4.3-9.5c0.3,0,1.3,0.5,1.3,0.7c-2.4,5.6-6,16.7-13.9,16.7
		c-3.1,0-6.4-1.9-6.1-6.3L364.9,57.4z"/>
	<path fill="#B07792" d="M399.6,46.5c0.3,0,1.3,0.5,1.3,0.7c-2.3,6.4-6.4,16.7-12.9,16.7c-5.4,0-7.5-5.2-7.5-11.4
		c0-9.5,4.9-21.5,11.6-21.5c2.7,0,4,1.8,4,4.3c0,5.5-6.4,11.8-11.7,12.8c-0.2,1.4-0.4,2.7-0.4,4.1c0,4.7,1.3,8.4,4.8,8.4
		C393.5,60.6,397.2,53,399.6,46.5z M384.6,46.3c5.9-2.7,8.5-7.6,8.5-10.9c0-1.7-0.5-2.5-1.4-2.5C388.8,32.8,385.8,39.8,384.6,46.3z"
		/>
	<path fill="#B07792" d="M400,57.4c0,2,1.2,3.6,3.2,3.6c2.6,0,4.4-2.9,4.4-6.3c0-5-2.7-10.4-4-17.5c-1.1,3.6-2.5,7.3-3.5,10
		c0,0-1.3-0.2-1.3-0.7c1.1-3.2,2.9-7.7,4.3-12c-0.3-1.5-0.4-3.2-0.4-6c0-2.5,0.7-4.9,1.3-6.9l2.9,0.6c-0.4,4-0.8,7.1-1.8,10.1
		c0.4,7.1,6.2,15.3,6.2,22.1c0,0.6-0.1,1.1-0.2,1.6c1.5-2.5,2.9-5.6,4.3-9.5c0.3,0,1.3,0.5,1.3,0.7c-2.4,5.6-6,16.7-13.9,16.7
		c-3.1,0-6.4-1.9-6.1-6.3L400,57.4z"/>
	<path fill="#E1BBA5" d="M81.3,106.6c-11,10-24.5,19.3-32.8,29.4c-7.4,9-11.3,17.2-11.3,26.3c0,9.5,5.6,15,12.2,15
		c6.6,0,10.7-5.6,10.7-10.7c0-3.4-1.7-6.4-5.5-7.6l3.6-7.3c6.4,1.9,9.5,7.9,9.5,14.3c0,8.6-6,18-17.9,18c-12.8,0-25.7-7.9-25.7-24.6
		c0-9.6,5-19.7,11.2-26.2c15.7-16.6,37.4-29.3,50.4-41c2.4-6.8,4.8-13.2,7.7-15.8l6.4,4c-1.1,5.6-4,10.9-8.2,16
		c-4.2,30-7.1,93-26.2,119.6c-4.9,7-11.9,10.3-20.8,10.3c-8.9,0-13.7-5.8-13.7-13.6c0-8,6.2-16.1,17.8-16.2l0.2,9.5
		c-7.3,1-10.2,5.2-10.2,8.8c0,3.5,2.5,5.5,5.8,5.5c5.2,0,8.9-2.8,12.5-7.4C70.5,194.8,71.1,144.6,81.3,106.6z"/>
	<path fill="#E1BBA5" d="M124.4,154.7c0.7,0,3.4,1,3.4,1.7c-6,15.7-12,28.2-23.8,28.2c-10.4,0-14.8-9.6-14.8-20.9
		c0-16.3,9-36.2,22.4-36.2c6,0,9,4.3,9,9.8c0,8.5-7.2,20-21.4,22.3c0,0.6,0,1.2,0,1.8c0,7.2,2,13,7.6,13
		C113.9,174.4,119.8,166.9,124.4,154.7z M99.7,155c9-4.4,13-12.7,13-17.2c0-1.8-0.7-3-1.9-3C105.8,134.9,101.1,145.1,99.7,155z"/>
	<path fill="#E1BBA5" d="M181.9,166.8c-4.1,0-7.4-1.3-10.1-3.4c-4.9,11.6-11.8,21.2-19.1,21.2c-6.4,0-9-5.9-9.5-14.8
		c-3.2,8.6-7.3,14.8-11.8,14.8c-6.2,0-8.4-6.2-8.4-15.5c0-11,3.1-26.5,5.9-40.6h10.2c-3.5,18.2-6.7,34.8-6.7,42.4
		c0,2.6,0.4,4.2,1.4,4.2c2.5,0,7-7,10.2-21.6c1-7.9,2.5-16.7,4.2-25h10.1c-3.1,16.4-5.9,31.6-5.9,40c0,4.2,0.7,6.7,2.5,6.7
		c3,0,7.8-8.4,11.5-18.7c-2.4-4.8-3.5-10.7-3.5-16.3c0-10.3,3.6-19.8,9.5-19.8c4.8,0,7,3.8,7,10.6c0,7.6-2.4,18.5-6.1,28.4
		c2.3,2.3,5.3,3.7,9.2,3.7h1c0.1-16.2,9.1-35.8,22.4-35.8c5,0,7.4,4,7.4,9.4c0,9.2-6.8,22.4-19.7,27.7c0.6,5.6,2.8,9.8,7.4,9.8
		c7.1,0,13-7.4,17.5-19.7c0.7,0,3.4,1,3.4,1.7c-6,15.7-12,28.2-23.8,28.2c-9.5,0-13.9-7.9-14.6-17.8H181.9z M171.1,126.1
		c-1.8,0-3.6,6.4-3.6,13.9c0,3.2,0.4,6.8,1.2,10.1c2.2-7.4,3.7-15.2,3.7-21.2C172.4,127.1,172.1,126.1,171.1,126.1z M193.5,159.8
		c8.6-5.6,12.8-17,12.8-22.2c0-1.7-0.5-2.8-1.3-2.8C199.3,134.9,194,148.6,193.5,159.8z"/>
	<path fill="#E1BBA5" d="M245.8,154.7c0.6,0,2.9,1,2.9,1.6c0,0.1,0,0.1,0,0.1c-7.1,19.2-12.6,28.2-20.4,28.2
		c-7.2,0-10.1-7.1-10.1-19.6c0-8.8,1.4-20.3,3.8-34c5.4-30.1,13-43.7,19.9-43.7c6.2,0,8,5,8,11.2c0,7.1-2.4,15.6-3.6,19.3
		c-4.9,15.7-13,27.5-17.8,33.4c-0.6,5.2-1,9.8-1,13.7c0,8,1.8,10.6,4.6,10.6C236.1,175.4,240.7,168,245.8,154.7z M243.5,95.4
		c-3.2,0-10.3,25.9-13.8,48.2c6-10.9,14.9-31,15-45.6C244.7,96.4,244.1,95.4,243.5,95.4z"/>
	<path fill="#E1BBA5" d="M272.9,154.7c0.6,0,2.9,1,2.9,1.6c0,0.1,0,0.1,0,0.1c-7.1,19.2-12.6,28.2-20.4,28.2
		c-7.2,0-10.1-7.1-10.1-19.6c0-8.8,1.4-20.3,3.8-34c5.4-30.1,13-43.7,19.9-43.7c6.2,0,8,5,8,11.2c0,7.1-2.4,15.6-3.6,19.3
		c-4.9,15.7-13,27.5-17.8,33.4c-0.6,5.2-1,9.8-1,13.7c0,8,1.8,10.6,4.6,10.6C263.2,175.4,267.8,168,272.9,154.7z M270.7,95.4
		c-3.2,0-10.3,25.9-13.8,48.2c6-10.9,14.9-31,15-45.6C271.9,96.4,271.3,95.4,270.7,95.4z"/>
	<path fill="#E1BBA5" d="M307.3,154.7c0.7,0,3.4,1,3.4,1.7c-6,15.7-12,28.2-23.8,28.2c-10.4,0-14.8-9.6-14.8-20.9
		c0-16.3,9-36.2,22.4-36.2c6,0,9,4.3,9,9.8c0,8.5-7.2,20-21.4,22.3c0,0.6,0,1.2,0,1.8c0,7.2,2,13,7.6,13
		C296.8,174.4,302.7,166.9,307.3,154.7z M282.5,155c9-4.4,13-12.7,13-17.2c0-1.8-0.7-3-1.9-3C288.7,134.9,284,145.1,282.5,155z"/>
	<path fill="#E1BBA5" d="M323.9,174.8c2.6,0,6.8-6.4,12.1-20.2c0.6,0,3.4,0.8,3.4,1.6v0.1c-5.3,13.7-9.5,27.6-19.3,27.6
		c-5.6,0-7.8-3.6-7.8-9c0-7.8,5.5-16.3,5.5-22.4c0-3.6-1.1-6.4-2.4-8.9l-4.8,12.7c0,0-3.4-0.6-3.4-1.6v-0.1
		c2.2-5.8,3.7-11.8,4.9-17.5c-1.2-2.6-2.2-5.9-2.2-10.1c0-3.8,0.8-8.6,2.8-14.9l9,2.6c-0.5,7.9-1.4,13.7-3.4,19.9
		c4,4.1,9.1,8.9,9.1,15.7c0,7.7-5.5,17.6-5.5,21.8C322,174.1,322.7,174.8,323.9,174.8z"/>
	<path fill="#E1BBA5" d="M351.8,128.6c0,0-2.4,10-5.4,25.3c-1.3,6.7-2.4,12.4-2.4,17.2c0,3.5,1.3,4.1,2.4,4.1
		c6,0,10.9-35.4,13.3-46.6h9.8c-1.4,5.6-5.9,30-9.4,49.6c14.9-13.1,30.4-29.6,30.4-54.8c0-17.6-10.6-27-25.2-27
		c-10.6,0-20.4,5.5-25.7,17.5l-8.4-3.5c5.8-11.6,18-20,34.1-20c17.8,0,33.7,10.2,33.7,32.9c0,30.1-22.9,48.4-40.3,62.9l-2.2,12.7
		c-2,12.1-6.6,21-14.3,21c-5.4,0-9.2-3.1-9.2-9.5c0-7.9,7.2-15,16.4-23c0.5-2.8,1.1-5.6,1.6-8.6c-2.3,3.2-5,5.3-8.3,5.3
		c-6.4,0-8.5-5.8-8.5-13.8c0-4.9,0.8-10.7,1.9-16.4c3-15.6,5.4-25.1,5.4-25.1H351.8z M342.2,213.5c2,0,3-2.4,3.7-6.1l2.2-11.8
		c-5,4.9-8.3,9.7-8.3,14.6C339.8,212.5,341,213.5,342.2,213.5z"/>
</g>
</svg>
